<svg xmlns="http://www.w3.org/2000/svg" viewBox="0 0 147 51"><defs><style>.cls-1{isolation:isolate;}.cls-2,.cls-3{fill:#fff;}.cls-3,.cls-4{opacity:0.6;mix-blend-mode:soft-light;}</style></defs><title>elcould logo</title><g class="cls-1"><g id="图层_1" data-name="图层 1"><path class="cls-2" d="M67.12,29.07H59.64V34.9H68v3H56V18H67.56v3H59.64v5.13h7.48Z"/><path class="cls-2" d="M70,18h3.63V34.85h8.16v3H70Z"/><path class="cls-2" d="M94,37.44a10.55,10.55,0,0,1-4.06.73c-4.48,0-7.4-2.85-7.4-7.3s3-7.66,8-7.66a9.07,9.07,0,0,1,3.5.68l-.65,2.71A6.3,6.3,0,0,0,90.65,26a4.27,4.27,0,0,0-4.39,4.65,4.26,4.26,0,0,0,4.39,4.63,7.18,7.18,0,0,0,2.86-.56Z"/><path class="cls-2" d="M108.89,30.57c0,5.28-3.72,7.63-7.37,7.63-4.06,0-7.18-2.79-7.18-7.39s3.09-7.6,7.42-7.6S108.89,26.22,108.89,30.57Zm-10.81.15c0,2.77,1.35,4.86,3.56,4.86s3.51-2,3.51-4.92c0-2.24-1-4.8-3.48-4.8S98.08,28.34,98.08,30.72Z"/><path class="cls-2" d="M123.53,33.58c0,1.71,0,3.12.11,4.3h-3.18l-.17-2.18h-.06a5.2,5.2,0,0,1-4.6,2.5c-2.62,0-5-1.56-5-6.24V23.53h3.63v7.81c0,2.39.76,3.92,2.68,3.92a3.06,3.06,0,0,0,2.77-1.95,3.44,3.44,0,0,0,.2-1.12V23.53h3.63Z"/><path class="cls-2" d="M126.27,17h3.65V37.88h-3.65Z"/><path class="cls-2" d="M145.88,17V33.84c0,1.48.06,3.07.12,4h-3.24l-.15-2.27h-.06a5.15,5.15,0,0,1-4.68,2.59c-3.42,0-6.13-2.91-6.13-7.33,0-4.8,3-7.66,6.42-7.66a4.58,4.58,0,0,1,4,1.89h.06V17Zm-3.62,12.54a5.07,5.07,0,0,0-.09-.94A3.17,3.17,0,0,0,139.05,26c-2.33,0-3.62,2.06-3.62,4.74s1.29,4.54,3.59,4.54a3.19,3.19,0,0,0,3.12-2.57,3.91,3.91,0,0,0,.12-1.06Z"/><path class="cls-2" d="M43.88,22.74A11.37,11.37,0,0,0,38,19.13h-.05c-.12-.32-.25-.64-.38-.95A18.6,18.6,0,0,0,36.4,16a15.78,15.78,0,0,0-3.25-3.82,13.55,13.55,0,0,0-4.41-2.48,15,15,0,0,0-4.88-.75,14.3,14.3,0,0,0-9,3.25,14.88,14.88,0,0,0-5,7.92l1.77.51a13.12,13.12,0,0,1,.49-1.23A11.38,11.38,0,0,1,28,13.1,9.43,9.43,0,0,1,30.63,15l.23.24.11.12c.13.14.27.28.39.43A11.37,11.37,0,0,1,34,21l0,.11c0,.13.07.32.08.38l0,.5,0,.33,0,.5c.23,0,.47,0,.71,0a8.11,8.11,0,0,1,8.11,8.11c0,.08,0,.16,0,.23s0,.3,0,.45,0,.13,0,.19a7.76,7.76,0,0,1-1.29,3.6l-.21.28-.13.18,0,.06A8.24,8.24,0,0,1,38,38.4a8.93,8.93,0,0,1-1.56.52,8.08,8.08,0,0,1-1.51.22,14.64,14.64,0,0,1-1.62.08,18.74,18.74,0,0,1-3.24-.28,23.28,23.28,0,0,1-6.29-2.14A33.19,33.19,0,0,1,18,33l2-2a.46.46,0,0,0-.16-.75L12.25,27.7c-.38-.15-.82.23-.6.61a31.52,31.52,0,0,0,3,3.35c.8.89,1.63,1.73,2.5,2.55a34.7,34.7,0,0,0,5.7,4.34,25,25,0,0,0,6.71,2.86,21.48,21.48,0,0,0,3.67.62c.63,0,1.25.07,1.88,0a9.53,9.53,0,0,0,2-.18A12,12,0,0,0,44,38a11.31,11.31,0,0,0,2.79-7.62A12,12,0,0,0,43.88,22.74Z"/><path class="cls-3" d="M43.88,22.74A11.37,11.37,0,0,0,38,19.13h-.05c-.12-.32-.25-.64-.38-.95A18.6,18.6,0,0,0,36.4,16a15.78,15.78,0,0,0-3.25-3.82,13.55,13.55,0,0,0-4.41-2.48,15,15,0,0,0-4.88-.75,14.3,14.3,0,0,0-9,3.25,14.88,14.88,0,0,0-5,7.92l1.77.51a13.12,13.12,0,0,1,.49-1.23A11.38,11.38,0,0,1,28,13.1,9.43,9.43,0,0,1,30.63,15l.23.24.11.12c.13.14.27.28.39.43A11.37,11.37,0,0,1,34,21l0,.11c0,.13.07.32.08.38l0,.5,0,.33,0,.5c.23,0,.47,0,.71,0a8.11,8.11,0,0,1,8.11,8.11c0,.08,0,.16,0,.23s0,.3,0,.45,0,.13,0,.19a7.76,7.76,0,0,1-1.29,3.6l-.21.28-.13.18,0,.06A8.24,8.24,0,0,1,38,38.4a8.93,8.93,0,0,1-1.56.52,8.08,8.08,0,0,1-1.51.22,14.64,14.64,0,0,1-1.62.08,18.74,18.74,0,0,1-3.24-.28,23.28,23.28,0,0,1-6.29-2.14A33.19,33.19,0,0,1,18,33l2-2a.46.46,0,0,0-.16-.75L12.25,27.7c-.38-.15-.82.23-.6.61a31.52,31.52,0,0,0,3,3.35c.8.89,1.63,1.73,2.5,2.55a34.7,34.7,0,0,0,5.7,4.34,25,25,0,0,0,6.71,2.86,21.48,21.48,0,0,0,3.67.62c.63,0,1.25.07,1.88,0a9.53,9.53,0,0,0,2-.18A12,12,0,0,0,44,38a11.31,11.31,0,0,0,2.79-7.62A12,12,0,0,0,43.88,22.74Z"/><path class="cls-2" d="M21.47,39.7l-2.25,0-5.95-.11a10.46,10.46,0,0,1-4.71-1.74,9.29,9.29,0,0,1-3.1-3.6,9.09,9.09,0,0,1,8.91-13.08,9.83,9.83,0,0,1,7.26,4.09h1.26a10.62,10.62,0,0,0-2.69-3.77,11,11,0,0,0-5.53-2.68,11.53,11.53,0,0,0-6.27.65,12,12,0,0,0-5.07,3.93,11.61,11.61,0,0,0-.92,12.49A11.41,11.41,0,0,0,7.1,40.28a14.73,14.73,0,0,0,6,1.59h.1l6-.21c1,0,3.66-.07,6.31-.09Z"/><g class="cls-4"><path class="cls-2" d="M21.47,39.7l-2.25,0-5.95-.11a10.46,10.46,0,0,1-4.71-1.74,9.29,9.29,0,0,1-3.1-3.6,9.09,9.09,0,0,1,8.91-13.08,9.83,9.83,0,0,1,7.26,4.09h1.26a10.62,10.62,0,0,0-2.69-3.77,11,11,0,0,0-5.53-2.68,11.53,11.53,0,0,0-6.27.65,12,12,0,0,0-5.07,3.93,11.61,11.61,0,0,0-.92,12.49A11.41,11.41,0,0,0,7.1,40.28a14.73,14.73,0,0,0,6,1.59h.1l6-.21c1,0,3.66-.07,6.31-.09Z"/></g></g></g></svg>